<svg width="100" height="100" viewBox="0 0 100 100" fill="none" xmlns="http://www.w3.org/2000/svg">
<g id="Variant=Primary">
<rect id="Rectangle 4" x="6" y="6" width="88" height="87" fill="black"/>
<g id="Rectangle 3">
<mask id="path-2-inside-1_4_148" fill="white">
<path d="M0 30.4C0 19.759 0 14.4385 2.07088 10.3742C3.89247 6.7991 6.7991 3.89247 10.3742 2.07088C14.4385 0 19.759 0 30.4 0H69.6C80.241 0 85.5615 0 89.6258 2.07088C93.2009 3.89247 96.1075 6.7991 97.9291 10.3742C100 14.4385 100 19.759 100 30.4V69.6C100 80.241 100 85.5615 97.9291 89.6258C96.1075 93.2009 93.2009 96.1075 89.6258 97.9291C85.5615 100 80.241 100 69.6 100H30.4C19.759 100 14.4385 100 10.3742 97.9291C6.7991 96.1075 3.89247 93.2009 2.07088 89.6258C0 85.5615 0 80.241 0 69.6V30.4Z"/>
</mask>
<path d="M-6.5 19C-6.5 5.19288 4.69288 -6 18.5 -6H81.5C95.3071 -6 106.5 5.19288 106.5 19H93.5C93.5 11.8203 87.9036 6 81 6H19C12.0964 6 6.5 11.8203 6.5 19H-6.5ZM106.5 82.5C106.5 96.5833 95.0833 108 81 108H19C4.91674 108 -6.5 96.5833 -6.5 82.5L6.5 81C6.5 87.0751 12.0964 92 19 92H81C87.9036 92 93.5 87.0751 93.5 81L106.5 82.5ZM19 108C4.91674 108 -6.5 96.5833 -6.5 82.5V19C-6.5 5.19288 4.69288 -6 18.5 -6L19 6C12.0964 6 6.5 11.8203 6.5 19V81C6.5 87.0751 12.0964 92 19 92V108ZM81.5 -6C95.3071 -6 106.5 5.19288 106.5 19V82.5C106.5 96.5833 95.0833 108 81 108V92C87.9036 92 93.5 87.0751 93.5 81V19C93.5 11.8203 87.9036 6 81 6L81.5 -6Z" fill="white" mask="url(#path-2-inside-1_4_148)"/>
</g>
<path id="Rectangle 5" d="M11.5 22.8C11.5 18.3196 11.5 16.0794 12.3719 14.3681C13.1389 12.8628 14.3628 11.6389 15.8681 10.8719C17.5794 10 19.8196 10 24.3 10H75.7C80.1804 10 82.4206 10 84.1319 10.8719C85.6372 11.6389 86.8611 12.8628 87.6281 14.3681C88.5 16.0794 88.5 18.3196 88.5 22.8V74.2C88.5 78.6804 88.5 80.9206 87.6281 82.6319C86.8611 84.1372 85.6372 85.3611 84.1319 86.1281C82.4206 87 80.1804 87 75.7 87H24.3C19.8196 87 17.5794 87 15.8681 86.1281C14.3628 85.3611 13.1389 84.1372 12.3719 82.6319C11.5 80.9206 11.5 78.6804 11.5 74.2V22.8Z" fill="#DB5325"/>
<path id="Rectangle 6" d="M11.5 22.8C11.5 18.3196 11.5 16.0794 12.3719 14.3681C13.1389 12.8628 14.3628 11.6389 15.8681 10.8719C17.5794 10 19.8196 10 24.3 10H75.7C80.1804 10 82.4206 10 84.1319 10.8719C85.6372 11.6389 86.8611 12.8628 87.6281 14.3681C88.5 16.0794 88.5 18.3196 88.5 22.8V64.2C88.5 68.6804 88.5 70.9206 87.6281 72.6319C86.8611 74.1372 85.6372 75.3611 84.1319 76.1281C82.4206 77 80.1804 77 75.7 77H24.3C19.8196 77 17.5794 77 15.8681 76.1281C14.3628 75.3611 13.1389 74.1372 12.3719 72.6319C11.5 70.9206 11.5 68.6804 11.5 64.2V22.8Z" fill="#FF6A00"/>
</g>
</svg>
